<?xml version="1.0" standalone="no"?>
<!DOCTYPE svg PUBLIC "-//W3C//DTD SVG 20010904//EN"
 "http://www.w3.org/TR/2001/REC-SVG-20010904/DTD/svg10.dtd">
<svg version="1.0" xmlns="http://www.w3.org/2000/svg"
 width="1200.000000pt" height="1200.000000pt" viewBox="0 0 1200.000000 1200.000000"
 preserveAspectRatio="xMidYMid meet">
<metadata>
Created by potrace 1.14, written by Peter Selinger 2001-2017
</metadata>
<g transform="translate(0.000000,1200.000000) scale(0.100000,-0.100000)"
fill="#000000" stroke="none">
<path d="M5797 10254 c-1 -1 -47 -5 -102 -9 -55 -3 -111 -8 -125 -10 -14 -2
-50 -7 -80 -10 -62 -7 -163 -22 -200 -29 -14 -3 -42 -7 -64 -10 -214 -32 -660
-167 -906 -274 -95 -41 -359 -173 -365 -182 -4 -6 -11 -8 -16 -5 -5 4 -9 2 -9
-2 0 -5 -24 -21 -52 -36 -164 -86 -530 -346 -677 -481 -101 -93 -186 -173
-215 -202 -71 -70 -273 -295 -295 -328 -8 -12 -18 -23 -21 -26 -3 -3 -17 -21
-30 -40 -13 -19 -29 -40 -35 -46 -11 -12 -22 -26 -98 -134 -184 -261 -355
-583 -472 -885 -66 -172 -144 -412 -159 -491 -2 -10 -9 -37 -14 -59 -6 -22
-13 -52 -16 -68 -3 -15 -7 -35 -10 -45 -8 -26 -54 -300 -61 -367 -4 -33 -9
-73 -11 -90 -24 -208 -24 -586 0 -850 33 -350 134 -769 270 -1120 247 -635
668 -1231 1181 -1669 50 -42 99 -85 110 -95 11 -10 81 -63 155 -117 268 -198
500 -332 833 -483 38 -17 71 -31 74 -31 4 0 36 -12 72 -26 143 -57 415 -145
495 -160 16 -2 32 -7 36 -9 4 -2 20 -7 36 -9 35 -7 55 -11 117 -25 26 -6 64
-14 85 -16 20 -3 48 -8 62 -11 14 -2 34 -6 45 -8 11 -2 63 -9 115 -15 52 -7
109 -14 125 -16 223 -30 688 -25 945 11 19 3 53 7 75 10 308 41 650 131 980
261 148 58 438 195 468 221 9 8 17 11 17 6 0 -5 4 -4 8 2 4 5 39 28 77 51 282
163 544 360 794 597 88 84 245 250 297 315 10 13 29 34 42 47 12 13 22 25 22
28 0 3 10 16 23 29 33 36 216 292 267 372 116 186 247 431 323 605 58 135 190
522 211 625 3 11 16 70 30 130 14 61 27 124 30 140 15 87 36 227 42 280 3 33
8 68 10 78 10 54 18 248 18 432 -1 185 -3 247 -19 420 -4 49 -32 259 -40 300
-63 331 -138 593 -247 865 -50 125 -200 443 -222 469 -6 7 -24 38 -41 67 -75
132 -269 425 -294 444 -4 3 -20 23 -36 45 -59 81 -246 293 -361 409 -11 12
-65 62 -119 111 -54 50 -106 97 -115 105 -8 9 -34 29 -55 45 -22 17 -44 35
-50 41 -5 5 -28 23 -50 39 -22 16 -44 33 -50 38 -140 114 -489 326 -720 437
-243 116 -628 256 -794 287 -14 2 -28 6 -31 8 -4 2 -20 7 -36 9 -16 3 -40 8
-54 11 -124 28 -242 48 -370 65 -232 30 -277 33 -523 34 -125 1 -229 1 -230 0z
m508 -348 c66 -6 146 -14 190 -20 28 -4 129 -20 135 -21 3 -1 30 -5 60 -10 30
-5 57 -9 60 -10 3 -1 23 -5 45 -10 22 -5 42 -10 45 -10 14 -4 70 -17 110 -27
25 -5 83 -21 130 -35 46 -14 91 -27 100 -28 88 -20 420 -155 570 -233 217
-112 438 -247 569 -349 9 -7 50 -38 92 -70 125 -95 196 -159 369 -333 266
-266 477 -546 645 -855 81 -149 106 -199 130 -255 14 -33 36 -84 49 -112 48
-108 118 -293 131 -348 2 -8 13 -49 25 -90 56 -195 105 -422 124 -580 3 -25 8
-63 10 -85 12 -100 19 -245 19 -420 1 -173 -9 -410 -17 -424 -2 -3 -7 -37 -11
-74 -3 -37 -8 -78 -11 -90 -2 -12 -13 -71 -24 -132 -34 -189 -137 -559 -185
-670 -7 -16 -29 -68 -48 -115 -62 -150 -112 -251 -242 -485 -37 -67 -138 -219
-147 -223 -5 -2 -8 -10 -8 -17 0 -7 -3 -15 -7 -17 -5 -1 -24 -25 -43 -53 -104
-151 -222 -288 -415 -480 -162 -162 -232 -225 -340 -306 -39 -29 -72 -55 -75
-58 -8 -9 -66 -49 -190 -132 -550 -364 -1203 -587 -1865 -635 -179 -13 -611
-7 -703 11 -9 1 -44 6 -77 9 -33 4 -67 9 -75 11 -8 2 -33 6 -55 9 -22 4 -51 8
-65 11 -14 2 -36 7 -50 9 -298 52 -731 199 -1010 344 -176 91 -439 246 -460
271 -3 3 -12 11 -21 16 -31 19 -134 93 -159 114 -14 11 -29 24 -35 28 -131
102 -167 135 -345 313 -314 314 -503 573 -722 990 -39 73 -67 135 -153 335
-71 163 -185 577 -219 795 -3 19 -7 44 -10 55 -2 11 -7 47 -10 80 -4 33 -9 71
-11 85 -19 130 -25 514 -11 719 4 63 9 117 10 120 2 3 7 37 11 74 3 37 8 78
11 90 7 37 13 70 20 112 23 154 162 655 194 700 3 6 15 33 24 60 10 28 29 74
42 102 14 29 24 54 23 55 -4 7 158 310 229 428 82 137 274 402 378 520 62 71
332 339 413 410 304 267 747 533 1139 684 210 81 527 169 722 201 19 3 58 10
85 15 28 5 77 12 110 16 33 3 69 8 79 10 11 2 76 7 145 10 70 4 127 7 129 9 5
4 381 -3 447 -9z"/>
<path d="M7825 7222 c-45 -15 -104 -70 -620 -578 l-570 -561 -5 501 c-4 441
-7 505 -22 531 -79 145 -302 140 -381 -8 l-22 -42 0 -1045 0 -1045 28 -47 c39
-67 101 -102 181 -101 70 0 119 18 159 59 55 55 57 71 57 388 l0 291 88 85
c48 47 121 118 163 159 l76 73 363 -479 c376 -496 408 -536 450 -558 78 -41
182 -21 254 48 35 34 46 53 57 100 23 104 23 104 -411 677 -214 283 -389 518
-387 522 1 3 169 165 372 359 204 194 381 367 394 385 66 91 28 228 -79 282
-52 26 -77 27 -145 4z"/>
<path d="M4235 7201 c-57 -26 -101 -79 -114 -141 -15 -68 -15 -1994 -1 -2070
22 -117 122 -185 236 -160 58 13 95 41 125 93 24 42 24 44 27 400 l3 357 327
0 c358 0 403 5 516 60 285 136 462 468 425 798 -12 105 -22 146 -59 234 -75
176 -215 322 -382 397 -107 49 -137 51 -616 51 -411 0 -450 -2 -487 -19z m916
-383 c82 -24 172 -131 204 -243 27 -92 18 -222 -22 -307 -37 -80 -103 -154
-158 -179 -36 -17 -71 -19 -352 -19 l-313 0 0 380 0 380 301 0 c200 0 315 -4
340 -12z"/>
</g>
</svg>
